<svg width="667" height="667" viewBox="0 0 667 667" fill="none" xmlns="http://www.w3.org/2000/svg">
<g id="Medidor de gasolina">
<g id="Medidor">
<path id="VectorF" d="M165.333 55.6667V81H170.667H176V71V61H184.8H193.467L193.067 56.6C192.667 52.3333 192.667 52.3333 184.4 51.9333L176 51.5333V45.6667V39.8L185.067 39.4L194 39L194.4 34.6L194.8 30.3333H180.133H165.333V55.6667Z" fill="black"/>
<path id="VectorE" d="M165.333 611.667V637H180.133H194.8L194.4 632.6L194 628.333L185.067 627.933L176 627.533V621.667V615.8L184.4 615.4C192.667 615 192.667 615 193.067 610.6L193.467 606.333H184.8H176V601V595.8L185.067 595.4L194 595L194.4 590.6L194.8 586.333H180.133H165.333V611.667Z" fill="#FF0000"/>
<g id="n11">
<path id="linea11" d="M236 50V67.3334H371.5H507V50V32.6667H371.5H236V50Z" fill="black"/>
</g>
<g id="n10">
<path id="linea10" d="M236 101V118.333H356H476V101V83.6667H356H236V101Z" fill="black"/>
</g>
<g id="n9">
<path id="linea9" d="M236 157V174.333H342.667H449.333V157V139.667H342.667H236V157Z" fill="black"/>
</g>
<g id="n8">
<path id="linea8" d="M236 213V230.333H334H432V213V195.667H334H236V213Z" fill="black"/>
</g>
<g id="n7">
<path id="linea7" d="M236 270.333V287.667H325.333H414.667V270.333V253H325.333H236V270.333Z" fill="black"/>
</g>
<g id="n6">
<path id="linea6" d="M236 327.667V345H317.333H398.667V327.667V310.333H317.333H236V327.667Z" fill="black"/>
</g>
<g id="n5">
<path id="linea5" d="M236 384.333V402.333H310.667H385.333V384.333V366.333H310.667H236V384.333Z" fill="black"/>
</g>
<g id="n4">
<path id="linea4" d="M236 441V458.333H300.667H365.333V441V423.667H300.667H236V441Z" fill="black"/>
</g>
<g id="n3">
<path id="linea3" d="M236 497V514.333H291.333H346.667V497V479.667H291.333H236V497Z" fill="black"/>
</g>
<g id="n2">
<path id="linea2" d="M236 553.167V570.667H280H324V553.167V535.667H280H236V553.167Z" fill="black"/>
</g>
<g id="n1">
<path id="linea1" d="M236 610.167V627.667H268.5H301V610.167V592.667H268.5H236V610.167Z" fill="black"/>
</g>
<g id="indicador">
<path id="Vector" d="M160 100.333V121H178.4H196.667L207.333 110.333L218 99.6667L208 89.6667L198.133 79.6667H179.067H160V100.333Z" fill="#00425F"/>
</g>
</g>
</g>
</svg>
